HIERARCHY
ROOT Hips
{
  OFFSET 42.584 78.5565 -19.2475
  CHANNELS 6 Xposition Yposition Zposition Zrotation Xrotation Yrotation
  JOINT Chest
  {
    OFFSET 1.23234e-007 14.8421 1.27321e-009
    CHANNELS 6 Xposition Yposition Zposition Zrotation Xrotation Yrotation
    JOINT LeftCollar
    {
      OFFSET 6.64893 27.3161 3.27471
      CHANNELS 6 Xposition Yposition Zposition Zrotation Xrotation Yrotation
      JOINT LeftUpArm
      {
        OFFSET 10.8584 2.41798 -0.945791
        CHANNELS 6 Xposition Yposition Zposition Zrotation Xrotation Yrotation
        JOINT LeftLowArm
        {
          OFFSET 3.77631 -24.5904 -1.70468
          CHANNELS 6 Xposition Yposition Zposition Zrotation Xrotation Yrotation
          JOINT LeftHand
          {
            OFFSET 1.01026 -21.1231 1.74131
            CHANNELS 6 Xposition Yposition Zposition Zrotation Xrotation Yrotation
            End Site
            {
              OFFSET 1.17583e-006 -9.81266 -2.89439e-008
            }
          }
        }
      }
    }
    JOINT RightCollar
    {
      OFFSET -6.11406 27.2248 4.23427
      CHANNELS 6 Xposition Yposition Zposition Zrotation Xrotation Yrotation
      JOINT RightUpArm
      {
        OFFSET -10.4566 2.3285 -0.910794
        CHANNELS 6 Xposition Yposition Zposition Zrotation Xrotation Yrotation
        JOINT RightLowArm
        {
          OFFSET -3.86856 -25.191 -1.74633
          CHANNELS 6 Xposition Yposition Zposition Zrotation Xrotation Yrotation
          JOINT RightHand
          {
            OFFSET -1.04759 -20.6242 1.75213
            CHANNELS 6 Xposition Yposition Zposition Zrotation Xrotation Yrotation
            End Site
            {
              OFFSET -2.03487e-006 -9.50367 -4.31372e-006
            }
          }
        }
      }
    }
    JOINT Neck
    {
      OFFSET 0.51659 29.8236 6.51843
      CHANNELS 6 Xposition Yposition Zposition Zrotation Xrotation Yrotation
      JOINT Head
      {
        OFFSET 1.16803e-007 7.47049 6.44171e-007
        CHANNELS 6 Xposition Yposition Zposition Zrotation Xrotation Yrotation
        End Site
        {
          OFFSET -4.32676e-008 16.2908 2.16786e-007
        }
      }
    }
  }
  JOINT LeftUpLeg
  {
    OFFSET 9 -3.38008e-006 -5.23002e-009
    CHANNELS 6 Xposition Yposition Zposition Zrotation Xrotation Yrotation
    JOINT LeftLowLeg
    {
      OFFSET -0.575 -51.431 3.90177
      CHANNELS 6 Xposition Yposition Zposition Zrotation Xrotation Yrotation
      JOINT LeftFoot
      {
        OFFSET 2.13082e-007 -43.5882 -3.90177
        CHANNELS 6 Xposition Yposition Zposition Zrotation Xrotation Yrotation
        End Site
        {
          OFFSET 7.44796e-007 -6.93413 15.0046
        }
      }
    }
  }
  JOINT RightUpLeg
  {
    OFFSET -9 6.86154e-007 -3.19541e-009
    CHANNELS 6 Xposition Yposition Zposition Zrotation Xrotation Yrotation
    JOINT RightLowLeg
    {
      OFFSET 0.575 -51.4311 3.90177
      CHANNELS 6 Xposition Yposition Zposition Zrotation Xrotation Yrotation
      JOINT RightFoot
      {
        OFFSET -7.46079e-007 -43.5882 -3.90177
        CHANNELS 6 Xposition Yposition Zposition Zrotation Xrotation Yrotation
        End Site
        {
          OFFSET 4.66716e-007 -6.93413 15.0046
        }
      }
    }
  }
}
MOTION
Frames:	8
Frame Time:	0.0333333
46.7747 79.6468 -16.5932 1.51446 -9.17448 2.18575 1.23229e-007 14.8421 1.27321e-009 -5.57588 10.1536 14.8332 6.64893 27.3161 3.27471 -2.94784 5.93879 -4.20517 10.8584 2.41798 -0.945791 -3.20654 -2.19054 -15.3613 3.77631 -24.5904 -1.70468 -107.435 -80.4183 -49.7598 1.01026 -21.1231 1.74131 9.00263 4.79095 0.699785 -6.11406 27.2248 4.23427 -1.96452 7.32629 3.42623 -10.4566 2.3285 -0.910794 -6.31348 -77.5173 -9.85243 -3.86856 -25.191 -1.74633 -10.1072 -5.06621 -8.12521 -1.04759 -20.6242 1.75213 6.5298 -1.00428 1.0844 0.51659 29.8236 6.51843 2.67979 -19.5925 -11.043 1.16803e-007 7.47049 6.44171e-007 -0.135685 22.5766 -9.15794 9 -3.38008e-006 -5.23002e-009 27.0773 -17.3387 20.925 -0.575 -51.431 3.90177 -10.0912 63.584 -28.4349 2.13082e-007 -43.5882 -3.90177 28.3014 -13.3277 0.444166 -9 6.86154e-007 -3.19541e-009 -34.6142 -16.3965 -27.625 0.575 -51.4311 3.90177 -6.09665 59.9457 26.206 -7.46079e-007 -43.5882 -3.90177 -17.4459 -15.2133 -0.556558 
46.8242 79.7017 -16.6256 1.33751 -9.30644 2.12102 1.23229e-007 14.8421 1.27321e-009 -5.85817 12.053 19.547 6.64893 27.3161 3.27471 -2.94784 5.93879 -4.20517 10.8584 2.41798 -0.945791 -5.24336 1.27156 -14.2768 3.77631 -24.5904 -1.70468 -114.347 -80.5111 -56.3412 1.01026 -21.1231 1.74131 9.82968 4.14648 0.793054 -6.11406 27.2248 4.23427 -1.96452 7.32629 3.42623 -10.4566 2.3285 -0.910794 -40.0143 -79.5253 -40.3443 -3.86856 -25.191 -1.74633 -13.9782 -2.85072 14.1229 -1.04759 -20.6242 1.75213 2.45713 0.0522894 0.466398 0.51659 29.8236 6.51843 3.17439 -21.0967 -12.3372 1.16803e-007 7.47049 6.44171e-007 -0.928162 23.3259 -9.9517 9 -3.38008e-006 -5.23002e-009 27.1208 -17.247 20.8173 -0.575 -51.431 3.90177 -9.9307 63.5848 -28.5067 2.13082e-007 -43.5882 -3.90177 28.3258 -13.368 0.454869 -9 6.86154e-007 -3.19541e-009 -34.5201 -16.1999 -27.7411 0.575 -51.4311 3.90177 -5.80189 59.7563 26.243 -7.46079e-007 -43.5882 -3.90177 -17.4032 -14.9259 -0.513582 
46.8924 79.7425 -16.684 1.30595 -9.29929 2.41279 1.23229e-007 14.8421 1.27321e-009 -6.36901 12.2736 22.4656 6.64893 27.3161 3.27471 -2.94784 5.93879 -4.20517 10.8584 2.41798 -0.945791 -5.40636 3.26322 -13.5894 3.77631 -24.5904 -1.70468 -113.183 -80.9439 -54.5496 1.01026 -21.1231 1.74131 8.60933 2.01354 0.700965 -6.11406 27.2248 4.23427 -1.96452 7.32629 3.42623 -10.4566 2.3285 -0.910794 -62.3392 -76.8781 -56.2509 -3.86856 -25.191 -1.74633 -15.7162 -1.91151 50.9747 -1.04759 -20.6242 1.75213 -2.52248 4.70694 -0.31502 0.51659 29.8236 6.51843 3.9797 -23.359 -13.8334 1.16803e-007 7.47049 6.44171e-007 -2.36192 24.6046 -10.6328 9 -3.38008e-006 -5.23002e-009 27.0278 -17.4422 20.6057 -0.575 -51.431 3.90177 -9.73217 63.5168 -28.1562 2.13082e-007 -43.5882 -3.90177 28.3008 -13.375 0.456145 -9 6.86154e-007 -3.19541e-009 -34.5989 -15.9772 -27.9672 0.575 -51.4311 3.90177 -5.57364 59.6145 26.1739 -7.46079e-007 -43.5882 -3.90177 -17.3457 -14.7075 -0.480144 
46.9343 79.7616 -16.7845 1.21891 -9.10107 2.90655 1.23229e-007 14.8421 1.27321e-009 -7.17632 11.6538 24.2093 6.64893 27.3161 3.27471 -2.94784 5.93879 -4.20517 10.8584 2.41798 -0.945791 -5.89602 4.09873 -11.2442 3.77631 -24.5904 -1.70468 -110.499 -80.8133 -51.3572 1.01026 -21.1231 1.74131 5.30882 1.64325 0.338596 -6.11406 27.2248 4.23427 -1.96452 7.32629 3.42623 -10.4566 2.3285 -0.910794 -76.3714 -72.8854 -60.483 -3.86856 -25.191 -1.74633 -12.011 -0.44872 84.9738 -1.04759 -20.6242 1.75213 -5.18019 8.14162 -0.655666 0.51659 29.8236 6.51843 5.44071 -25.2439 -15.1036 1.16803e-007 7.47049 6.44171e-007 -3.92409 25.3669 -10.9864 9 -3.38008e-006 -5.23002e-009 27.0995 -17.9308 20.5318 -0.575 -51.431 3.90177 -9.60297 63.4685 -27.8749 2.13082e-007 -43.5882 -3.90177 28.245 -13.3817 0.456658 -9 6.86154e-007 -3.19541e-009 -34.5215 -15.9056 -28.087 0.575 -51.4311 3.90177 -5.49112 59.53 25.7615 -7.46079e-007 -43.5882 -3.90177 -17.2763 -14.7812 -0.487698 
46.9951 79.7387 -16.8444 1.29473 -8.77975 3.51352 1.23229e-007 14.8421 1.27321e-009 -7.73328 11.1892 24.8941 6.64893 27.3161 3.27471 -2.94784 5.93879 -4.20517 10.8584 2.41798 -0.945791 -6.93945 4.14375 -7.66637 3.77631 -24.5904 -1.70468 -109.208 -79.9214 -50.1271 1.01026 -21.1231 1.74131 2.59726 1.82155 0.0505925 -6.11406 27.2248 4.23427 -1.96452 7.32629 3.42623 -10.4566 2.3285 -0.910794 -82.805 -70.6548 -59.2659 -3.86856 -25.191 -1.74633 -8.91217 1.87975 95.0377 -1.04759 -20.6242 1.75213 -6.28574 9.09012 -0.703395 0.51659 29.8236 6.51843 6.19108 -25.7751 -15.5878 1.16803e-007 7.47049 6.44171e-007 -4.1433 25.4639 -11.2509 9 -3.38008e-006 -5.23002e-009 27.062 -18.5276 20.5781 -0.575 -51.431 3.90177 -9.7231 63.5367 -28.0549 2.13082e-007 -43.5882 -3.90177 28.069 -13.0901 0.380531 -9 6.86154e-007 -3.19541e-009 -34.6632 -15.8876 -28.2871 0.575 -51.4311 3.90177 -5.60837 59.5493 25.074 -7.46079e-007 -43.5882 -3.90177 -17.2734 -15.1085 -0.533872 
47.0318 79.7331 -16.8272 1.48058 -8.79855 4.03407 1.23229e-007 14.8421 1.27321e-009 -8.09339 11.2322 25.114 6.64893 27.3161 3.27471 -2.94784 5.93879 -4.20517 10.8584 2.41798 -0.945791 -7.56177 3.38563 -5.55004 3.77631 -24.5904 -1.70468 -106.519 -79.6666 -47.9741 1.01026 -21.1231 1.74131 1.21919 2.34256 -0.0771249 -6.11406 27.2248 4.23427 -1.96452 7.32629 3.42623 -10.4566 2.3285 -0.910794 -84.2298 -70.1341 -57.81 -3.86856 -25.191 -1.74633 -8.49462 1.55115 93.3332 -1.04759 -20.6242 1.75213 -6.78703 9.12188 -0.728293 0.51659 29.8236 6.51843 6.45746 -26.2771 -15.7004 1.16803e-007 7.47049 6.44171e-007 -4.35273 25.8405 -11.2385 9 -3.38008e-006 -5.23002e-009 26.9388 -18.6949 20.6359 -0.575 -51.431 3.90177 -9.93758 63.6482 -28.872 2.13082e-007 -43.5882 -3.90177 28.0141 -12.8839 0.327701 -9 6.86154e-007 -3.19541e-009 -34.7568 -15.5991 -28.2513 0.575 -51.4311 3.90177 -5.89565 59.5314 24.5337 -7.46079e-007 -43.5882 -3.90177 -17.2309 -15.2341 -0.549716 
47.0422 79.679 -16.8066 1.59429 -8.89778 4.41077 1.23229e-007 14.8421 1.27321e-009 -8.29358 11.4145 25.1171 6.64893 27.3161 3.27471 -2.94784 5.93879 -4.20517 10.8584 2.41798 -0.945791 -7.7861 2.35409 -4.5272 3.77631 -24.5904 -1.70468 -103.585 -79.2019 -44.7311 1.01026 -21.1231 1.74131 0.792881 2.25271 -0.127373 -6.11406 27.2248 4.23427 -1.96452 7.32629 3.42623 -10.4566 2.3285 -0.910794 -86.0989 -69.8971 -59.804 -3.86856 -25.191 -1.74633 -8.20897 1.51658 95.418 -1.04759 -20.6242 1.75213 -6.7332 8.42707 -0.720339 0.51659 29.8236 6.51843 6.61291 -26.4478 -15.6558 1.16803e-007 7.47049 6.44171e-007 -4.80859 25.8096 -11.0139 9 -3.38008e-006 -5.23002e-009 26.9671 -18.7573 20.7609 -0.575 -51.431 3.90177 -10.1511 63.8321 -29.5469 2.13082e-007 -43.5882 -3.90177 28.2465 -13.1003 0.385737 -9 6.86155e-007 -3.19541e-009 -34.7416 -15.3799 -28.12 0.575 -51.4311 3.90177 -6.15393 59.6095 24.2852 -7.46079e-007 -43.5882 -3.90177 -17.1821 -15.2179 -0.545171 
47.0506 79.5617 -16.7386 1.74097 -8.98409 4.70577 1.23229e-007 14.8421 1.27321e-009 -8.25399 11.6573 24.6897 6.64893 27.3161 3.27471 -2.94784 5.93879 -4.20517 10.8584 2.41798 -0.945791 -7.37184 1.64038 -4.73371 3.77631 -24.5904 -1.70468 -102.311 -79.0832 -42.6319 1.01026 -21.1231 1.74131 2.05517 1.67752 -0.0152744 -6.11406 27.2248 4.23427 -1.96452 7.32629 3.42623 -10.4566 2.3285 -0.910794 -87.3323 -70.076 -60.7416 -3.86856 -25.191 -1.74633 -8.00776 1.67385 96.1078 -1.04759 -20.6242 1.75213 -7.2027 8.89948 -0.744471 0.51659 29.8236 6.51843 6.41169 -26.4781 -15.3818 1.16803e-007 7.47049 6.44171e-007 -4.9811 25.6977 -10.7349 9 -3.38008e-006 -5.23002e-009 26.9512 -18.8055 20.789 -0.575 -51.431 3.90177 -10.3038 64.0501 -29.6445 2.13082e-007 -43.5882 -3.90177 28.3254 -13.1724 0.40528 -9 6.86155e-007 -3.19541e-009 -34.9124 -15.1944 -28.138 0.575 -51.4311 3.90177 -6.33435 59.827 24.2443 -7.46079e-007 -43.5882 -3.90177 -17.2274 -15.4683 -0.582612 
